<?xml version="1.0" encoding="utf-8"?>
<!-- Generator: Adobe Illustrator 25.3.1, SVG Export Plug-In . SVG Version: 6.00 Build 0)  -->
<svg version="1.1" id="Layer_1" xmlns="http://www.w3.org/2000/svg" xmlns:xlink="http://www.w3.org/1999/xlink" x="0px" y="0px"
	 viewBox="0 0 548.1 552.3" style="enable-background:new 0 0 548.1 552.3;" xml:space="preserve">
<style type="text/css">
	.st0{fill:#42C4D1;}
	.st1{fill:#FFFFFF;}
	.st2{fill:#FFFFFF;stroke:#000000;stroke-width:8;stroke-miterlimit:10;}
	.st3{fill:none;stroke:#FFFFFF;}
	.st4{fill:none;stroke:#000000;stroke-width:5.5;stroke-miterlimit:10;}
</style>
<circle class="st0" cx="278.6" cy="274" r="256.7"/>
<rect x="436" y="370.4" class="st1" width="30.8" height="25.4"/>
<rect x="85.2" y="376.2" class="st1" width="28.5" height="19.6"/>
<rect x="312.9" y="145.3" class="st1" width="116.2" height="42.4"/>
<rect x="300.9" y="156.5" class="st1" width="103.2" height="52.8"/>
<rect x="186.5" y="160.7" class="st1" width="62" height="22.2"/>
<rect x="113.7" y="148.7" class="st1" width="130.3" height="41.4"/>
<rect x="88.3" y="171.2" class="st1" width="374.7" height="215.4"/>
<path class="st2" d="M450,102.7c-44.8-44.8-106.8-72.6-175.3-72.6c-68.4,0-130.4,27.7-175.3,72.6c-44.8,44.8-72.6,106.8-72.6,175.3
	c0,68.4,27.7,130.4,72.6,175.3c44.9,44.9,106.8,72.6,175.3,72.6c68.4,0,130.4-27.7,175.3-72.6c44.8-44.8,72.6-106.8,72.6-175.3
	C522.6,209.5,494.8,147.5,450,102.7 M274.7,9.7c74.1,0,141.1,30,189.6,78.6c48.5,48.5,78.6,115.6,78.6,189.6
	c0,74-30,141.1-78.6,189.6c-48.5,48.5-115.6,78.6-189.6,78.6c-74.1,0-141.1-30-189.6-78.6C36.5,419,6.5,352,6.5,277.9
	c0-74.1,30-141.1,78.6-189.6C133.6,39.8,200.6,9.7,274.7,9.7z"/>
<g>
	<g>
		<g>
			<g>
				<path class="st1" d="M464,156.5C464,156.5,463.9,156.5,464,156.5L464,156.5h-26v-8.9c0.1-3.5-2.1-6.7-5.5-7.6
					c-18-4.7-36.5-7.1-55-7c-30.5,0-72.1,6.9-102.9,38.2C244,139.6,202.1,133,171.7,133c-18.6,0-37.1,2.3-55,7
					c-3.4,1-5.6,4.1-5.5,7.6v8.8H85.4c-4.2,0-7.6,3.4-7.6,7.6v243.9c0,4.2,3.4,7.6,7.6,7.6c1.3,0,2.6-0.3,3.7-1
					c0.8-0.4,77.1-42.1,183.7-15.3h1.1h0.7c0.6,0.1,1.2,0.1,1.8,0c106.9-27.1,183.2,14.6,183.7,15.3c2.4,1.4,5.3,1.4,7.6,0
					c2.3-1.4,3.8-3.9,3.8-6.6V164.2C471.6,159.9,468.2,156.5,464,156.5z M93,395.8v-224h18.2v191.5c0,4.2,3.3,7.7,7.5,7.7
					c0.4,0,0.8,0,1.2-0.1c15.8-2.4,31.7-3.7,47.7-3.8c22.1-0.4,44.2,2.9,65.2,9.8C185.5,371.2,137.3,377.7,93,395.8z M167.8,351.9
					c-13.9,0-27.8,0.9-41.5,2.7V153.7c14.9-3.3,30-5,45.3-5c28.6,0,67.9,6.6,95.3,37.4l0.2,190.2
					C251.1,365.9,220.1,351.9,167.8,351.9z M282.3,186.1c27.3-30.5,66.7-37.4,95.3-37.4c15.2,0,30.4,1.7,45.3,5v200.9
					c-13.7-1.8-27.5-2.7-41.3-2.7c-52.1,0-83.1,14-99.3,24.4V186.1z M456.3,395.8c-44.4-18.2-92.7-24.7-140.3-18.9
					c21.1-6.9,43.3-10.3,65.5-9.8c16.1,0.1,32.1,1.3,48,3.7c4.2,0.6,8.1-2.2,8.7-6.4c0.1-0.4,0.1-0.8,0.1-1.2V171.8h18.2
					L456.3,395.8z"/>
			</g>
		</g>
	</g>
	<g>
		<g>
			<g>
				<path class="st3" d="M464,156.5C464,156.5,463.9,156.5,464,156.5L464,156.5h-26v-8.9c0.1-3.5-2.1-6.7-5.5-7.6
					c-18-4.7-36.5-7.1-55-7c-30.5,0-72.1,6.9-102.9,38.2C244,139.6,202.1,133,171.7,133c-18.6,0-37.1,2.3-55,7
					c-3.4,1-5.6,4.1-5.5,7.6v8.8H85.4c-4.2,0-7.6,3.4-7.6,7.6v243.9c0,4.2,3.4,7.6,7.6,7.6c1.3,0,2.6-0.3,3.7-1
					c0.8-0.4,77.1-42.1,183.7-15.3h1.1h0.7c0.6,0.1,1.2,0.1,1.8,0c106.9-27.1,183.2,14.6,183.7,15.3c2.4,1.4,5.3,1.4,7.6,0
					c2.3-1.4,3.8-3.9,3.8-6.6V164.2C471.6,159.9,468.2,156.5,464,156.5z M93,395.8v-224h18.2v191.5c0,4.2,3.3,7.7,7.5,7.7
					c0.4,0,0.8,0,1.2-0.1c15.8-2.4,31.7-3.7,47.7-3.8c22.1-0.4,44.2,2.9,65.2,9.8C185.5,371.2,137.3,377.7,93,395.8z M167.8,351.9
					c-13.9,0-27.8,0.9-41.5,2.7V153.7c14.9-3.3,30-5,45.3-5c28.6,0,67.9,6.6,95.3,37.4l0.2,190.2
					C251.1,365.9,220.1,351.9,167.8,351.9z M282.3,186.1c27.3-30.5,66.7-37.4,95.3-37.4c15.2,0,30.4,1.7,45.3,5v200.9
					c-13.7-1.8-27.5-2.7-41.3-2.7c-52.1,0-83.1,14-99.3,24.4V186.1z M456.3,395.8c-44.4-18.2-92.7-24.7-140.3-18.9
					c21.1-6.9,43.3-10.3,65.5-9.8c16.1,0.1,32.1,1.3,48,3.7c4.2,0.6,8.1-2.2,8.7-6.4c0.1-0.4,0.1-0.8,0.1-1.2V171.8h18.2
					L456.3,395.8z"/>
			</g>
		</g>
	</g>
	<g>
		<g>
			<g>
				<path class="st1" d="M464,156.5C464,156.5,463.9,156.5,464,156.5L464,156.5h-26v-8.9c0.1-3.5-2.1-6.7-5.5-7.6
					c-18-4.7-36.5-7.1-55-7c-30.5,0-72.1,6.9-102.9,38.2C244,139.6,202.1,133,171.7,133c-18.6,0-37.1,2.3-55,7
					c-3.4,1-5.6,4.1-5.5,7.6v8.8H85.4c-4.2,0-7.6,3.4-7.6,7.6v243.9c0,4.2,3.4,7.6,7.6,7.6c1.3,0,2.6-0.3,3.7-1
					c0.8-0.4,77.1-42.1,183.7-15.3h1.1h0.7c0.6,0.1,1.2,0.1,1.8,0c106.9-27.1,183.2,14.6,183.7,15.3c2.4,1.4,5.3,1.4,7.6,0
					c2.3-1.4,3.8-3.9,3.8-6.6V164.2C471.6,159.9,468.2,156.5,464,156.5z M93,395.8v-224h18.2v191.5c0,4.2,3.3,7.7,7.5,7.7
					c0.4,0,0.8,0,1.2-0.1c15.8-2.4,31.7-3.7,47.7-3.8c22.1-0.4,44.2,2.9,65.2,9.8C185.5,371.2,137.3,377.7,93,395.8z M167.8,351.9
					c-13.9,0-27.8,0.9-41.5,2.7V153.7c14.9-3.3,30-5,45.3-5c28.6,0,67.9,6.6,95.3,37.4l0.2,190.2
					C251.1,365.9,220.1,351.9,167.8,351.9z M282.3,186.1c27.3-30.5,66.7-37.4,95.3-37.4c15.2,0,30.4,1.7,45.3,5v200.9
					c-13.7-1.8-27.5-2.7-41.3-2.7c-52.1,0-83.1,14-99.3,24.4V186.1z M456.3,395.8c-44.4-18.2-92.7-24.7-140.3-18.9
					c21.1-6.9,43.3-10.3,65.5-9.8c16.1,0.1,32.1,1.3,48,3.7c4.2,0.6,8.1-2.2,8.7-6.4c0.1-0.4,0.1-0.8,0.1-1.2V171.8h18.2
					L456.3,395.8z"/>
			</g>
		</g>
	</g>
	<g>
		<g>
			<g>
				<path d="M464,156.5C464,156.5,463.9,156.5,464,156.5L464,156.5h-26v-8.9c0.1-3.5-2.1-6.7-5.5-7.6c-18-4.7-36.5-7.1-55-7
					c-30.5,0-72.1,6.9-102.9,38.2C244,139.6,202.1,133,171.7,133c-18.6,0-37.1,2.3-55,7c-3.4,1-5.6,4.1-5.5,7.6v8.8H85.4
					c-4.2,0-7.6,3.4-7.6,7.6v243.9c0,4.2,3.4,7.6,7.6,7.6c1.3,0,2.6-0.3,3.7-1c0.8-0.4,77.1-42.1,183.7-15.3h1.1h0.7
					c0.6,0.1,1.2,0.1,1.8,0c106.9-27.1,183.2,14.6,183.7,15.3c2.4,1.4,5.3,1.4,7.6,0c2.3-1.4,3.8-3.9,3.8-6.6V164.2
					C471.6,159.9,468.2,156.5,464,156.5z M93,395.8v-224h18.2v191.5c0,4.2,3.3,7.7,7.5,7.7c0.4,0,0.8,0,1.2-0.1
					c15.8-2.4,31.7-3.7,47.7-3.8c22.1-0.4,44.2,2.9,65.2,9.8C185.5,371.2,137.3,377.7,93,395.8z M167.8,351.9
					c-13.9,0-27.8,0.9-41.5,2.7V153.7c14.9-3.3,30-5,45.3-5c28.6,0,67.9,6.6,95.3,37.4l0.2,190.2
					C251.1,365.9,220.1,351.9,167.8,351.9z M282.3,186.1c27.3-30.5,66.7-37.4,95.3-37.4c15.2,0,30.4,1.7,45.3,5v200.9
					c-13.7-1.8-27.5-2.7-41.3-2.7c-52.1,0-83.1,14-99.3,24.4V186.1z M456.3,395.8c-44.4-18.2-92.7-24.7-140.3-18.9
					c21.1-6.9,43.3-10.3,65.5-9.8c16.1,0.1,32.1,1.3,48,3.7c4.2,0.6,8.1-2.2,8.7-6.4c0.1-0.4,0.1-0.8,0.1-1.2V171.8h18.2
					L456.3,395.8z"/>
			</g>
		</g>
	</g>
</g>
<line class="st4" x1="295.9" y1="213.8" x2="415.4" y2="213.8"/>
<line class="st4" x1="295.9" y1="202.5" x2="393.6" y2="202.5"/>
<line class="st4" x1="295.9" y1="236.5" x2="415.4" y2="236.5"/>
<line class="st4" x1="295.9" y1="225.2" x2="415.4" y2="225.2"/>
<line class="st4" x1="295.9" y1="259.2" x2="415.4" y2="259.2"/>
<line class="st4" x1="295.9" y1="247.9" x2="415.4" y2="247.9"/>
<line class="st4" x1="295.9" y1="281.3" x2="415.4" y2="281.3"/>
<line class="st4" x1="295.9" y1="269.9" x2="415.4" y2="269.9"/>
<line class="st4" x1="295.9" y1="304" x2="415.4" y2="304"/>
<line class="st4" x1="295.9" y1="292.6" x2="415.4" y2="292.6"/>
<line class="st4" x1="317.7" y1="336.5" x2="415.4" y2="336.5"/>
<line class="st4" x1="295.9" y1="326.7" x2="415.4" y2="326.7"/>
<line class="st4" x1="295.9" y1="315.3" x2="415.4" y2="315.3"/>
<g>
	<g>
		<rect x="147" y="322.3" width="30.3" height="13.2"/>
		<path d="M204.7,333.9l3.9,5.3H260v-5.3H204.7z"/>
		<path d="M195.2,323.8l4.5,5.6H260v-5.6H195.2z"/>
		<path d="M183.2,312.6l5.4,5.5H260v-5.5H183.2z"/>
		<path d="M166.6,309.8c16.9-28.1,27.1-59.7,29.6-92.4l31,31.1c4.9-9.7,3-21.4-4.6-29.1l-2.7-2.7c-1.8-1.8-3.9-3.4-6.2-4.5l28.8,0.1
			c-3.4-10.3-13-17.3-23.8-17.3l-3.9,0c-2.8,0-5.5,0.4-8.1,1.3l20.6-20.6c-9.7-4.9-21.4-3-29.1,4.6l-2.7,2.7
			c-1.8,1.8-3.4,3.9-4.5,6.2c-1.2-2.3-2.7-4.4-4.5-6.2l-2.7-2.8c-7.6-7.7-19.3-9.6-29-4.8l20.5,20.8c-2.6-0.9-5.4-1.4-8.1-1.4
			l-3.9,0c-10.8,0-20.5,6.8-24,17.1l28.8,0.1c-2.3,1.2-4.4,2.7-6.2,4.5L159,219c-7.7,7.6-9.6,19.3-4.8,29l30.5-30.1
			c-2.1,31.4-13.5,61.5-32.7,86.4c-4.3-1.2-8.7-2.2-13.2-2.8l-0.2,37.3l66,0.3l-0.1-0.2C194.3,326.5,181.3,316.4,166.6,309.8z
			 M157,335.2l-5.7,0l0-5.7l5.7,0L157,335.2z M174.3,329.6l-5.7,0l0-5.7l5.7,0L174.3,329.6z"/>
	</g>
</g>
</svg>
